<svg width="32" height="33" viewBox="0 0 32 33" fill="none" xmlns="http://www.w3.org/2000/svg">
<path opacity="0.2" d="M6 9.01872H14V23.0479H6V9.01872ZM23.83 4.80871C23.8034 4.6793 23.7515 4.55644 23.6773 4.44721C23.6031 4.33797 23.5081 4.24452 23.3977 4.17222C23.2874 4.09992 23.1638 4.05021 23.0342 4.02595C22.9046 4.00169 22.7715 4.00335 22.6425 4.03085L16.7913 5.28345C16.5311 5.34105 16.3043 5.49942 16.1603 5.72401C16.0162 5.94859 15.9667 6.22115 16.0225 6.48219L17.4737 13.4028L25.2812 11.7218L23.83 4.80871Z" fill="#FDFDFD"/>
<path d="M28.9562 24.3694L24.8075 4.60333C24.7538 4.34484 24.6497 4.09953 24.5012 3.88148C24.3526 3.66343 24.1626 3.47694 23.9419 3.33273C23.7212 3.18851 23.4742 3.08942 23.2152 3.04113C22.9562 2.99284 22.6902 2.99632 22.4325 3.05135L16.5812 4.31147C16.0637 4.42503 15.6118 4.73878 15.3239 5.18447C15.036 5.63016 14.9353 6.17174 15.0437 6.69142L19.1925 26.4575C19.285 26.9085 19.5295 27.3138 19.8851 27.6053C20.2407 27.8969 20.6856 28.0568 21.145 28.0583C21.287 28.0582 21.4286 28.043 21.5675 28.0132L27.4188 26.7531C27.9369 26.6393 28.3893 26.3249 28.6772 25.8785C28.9652 25.432 29.0655 24.8896 28.9562 24.3694ZM17 6.28182C17 6.2743 17 6.27055 17 6.27055L22.85 5.01794L23.2663 7.00582L17.4163 8.2672L17 6.28182ZM17.8275 10.2238L23.68 8.9649L24.0975 10.9565L18.25 12.2167L17.8275 10.2238ZM18.6575 14.1782L24.51 12.9181L26.1725 20.8396L20.32 22.0997L18.6575 14.1782ZM27 24.7941L21.15 26.0467L20.7337 24.0588L26.5837 22.7974L27 24.7828C27 24.7903 27 24.7941 27 24.7941ZM13 4.00834H7C6.46957 4.00834 5.96086 4.2195 5.58579 4.59535C5.21071 4.9712 5 5.48097 5 6.01251V26.0542C5 26.5857 5.21071 27.0955 5.58579 27.4713C5.96086 27.8472 6.46957 28.0583 7 28.0583H13C13.5304 28.0583 14.0391 27.8472 14.4142 27.4713C14.7893 27.0955 15 26.5857 15 26.0542V6.01251C15 5.48097 14.7893 4.9712 14.4142 4.59535C14.0391 4.2195 13.5304 4.00834 13 4.00834ZM7 6.01251H13V8.01668H7V6.01251ZM7 10.0208H13V22.0458H7V10.0208ZM13 26.0542H7V24.05H13V26.0542Z" fill="#FDFDFD"/>
</svg>
