<svg width="32" height="33" viewBox="0 0 32 33" fill="none" xmlns="http://www.w3.org/2000/svg">
<path opacity="0.2" d="M26 18.0375C26 20.6952 24.9464 23.244 23.0711 25.1233C21.1957 27.0025 18.6522 28.0583 16 28.0583C13.3478 28.0583 10.8043 27.0025 8.92893 25.1233C7.05357 23.244 6 20.6952 6 18.0375C6 14.2083 7.8025 10.7398 9.875 8.01664L14 12.025L17.2838 3.00623C19.9825 5.25089 26 11.0417 26 18.0375Z" fill="#FDFDFD"/>
<path d="M22.9862 19.2075C22.7269 20.6589 22.0301 21.9958 20.9896 23.0383C19.949 24.0808 18.6147 24.7788 17.1663 25.0383C17.1113 25.0472 17.0557 25.0518 17 25.0521C16.7492 25.052 16.5075 24.9575 16.323 24.7873C16.1384 24.617 16.0245 24.3835 16.0037 24.133C15.9829 23.8825 16.0569 23.6333 16.2108 23.4349C16.3648 23.2365 16.5876 23.1033 16.835 23.0617C18.9062 22.7122 20.6637 20.9511 21.015 18.8718C21.0594 18.6096 21.2059 18.3759 21.4223 18.2221C21.6387 18.0682 21.9072 18.0068 22.1688 18.0513C22.4303 18.0958 22.6635 18.2426 22.8171 18.4595C22.9706 18.6763 23.0319 18.9453 22.9875 19.2075H22.9862ZM27 18.0375C27 20.961 25.8411 23.7647 23.7782 25.8319C21.7153 27.8991 18.9174 29.0604 16 29.0604C13.0826 29.0604 10.2847 27.8991 8.22183 25.8319C6.15893 23.7647 5 20.961 5 18.0375C5 14.5403 6.375 10.9641 9.0825 7.40918C9.1682 7.29662 9.27674 7.20353 9.40095 7.13605C9.52516 7.06858 9.66223 7.02824 9.80313 7.01771C9.94403 7.00718 10.0856 7.02668 10.2184 7.07494C10.3512 7.1232 10.4723 7.19912 10.5737 7.2977L13.5887 10.23L16.3388 2.66306C16.3937 2.51214 16.484 2.37667 16.6022 2.26806C16.7203 2.15946 16.8628 2.08091 17.0175 2.03904C17.1723 1.99716 17.3349 1.99319 17.4915 2.02745C17.6481 2.06172 17.7942 2.13322 17.9175 2.23592C20.6512 4.5094 27 10.5908 27 18.0375ZM25 18.0375C25 12.2643 20.5262 7.27515 17.7237 4.71858L14.94 12.3682C14.8829 12.5254 14.7874 12.6656 14.6623 12.7763C14.5372 12.887 14.3865 12.9646 14.2238 13.0019C14.0612 13.0393 13.8918 13.0352 13.7311 12.9902C13.5704 12.9451 13.4235 12.8605 13.3038 12.744L10.0075 9.53986C8.01125 12.4271 7 15.2818 7 18.0375C7 20.4294 7.94821 22.7234 9.63604 24.4147C11.3239 26.1061 13.6131 27.0563 16 27.0563C18.3869 27.0563 20.6761 26.1061 22.364 24.4147C24.0518 22.7234 25 20.4294 25 18.0375Z" fill="#FDFDFD"/>
</svg>
