<svg width="28" height="28" viewBox="0 0 28 28" fill="none" xmlns="http://www.w3.org/2000/svg">
<path opacity="0.2" d="M22.7496 21H5.24962C5.09647 20.9991 4.94625 20.958 4.81396 20.8808C4.68168 20.8036 4.57197 20.6931 4.49579 20.5602C4.41962 20.4274 4.37965 20.2768 4.37988 20.1237C4.38012 19.9705 4.42054 19.8201 4.49712 19.6875C5.2179 18.4406 6.12462 16.1667 6.12462 12.25C6.12462 10.1614 6.9543 8.15838 8.43115 6.68153C9.908 5.20468 11.911 4.375 13.9996 4.375C16.0882 4.375 18.0912 5.20468 19.5681 6.68153C21.0449 8.15838 21.8746 10.1614 21.8746 12.25C21.8746 16.1678 22.7824 18.4406 23.5043 19.6875C23.581 19.8203 23.6214 19.9709 23.6215 20.1242C23.6217 20.2776 23.5815 20.4282 23.5051 20.5612C23.4286 20.6941 23.3186 20.8046 23.186 20.8816C23.0535 20.9586 22.903 20.9995 22.7496 21Z" fill="#FDFDFD"/>
<path d="M24.5001 7.77653C24.2941 7.88319 24.0542 7.9037 23.8331 7.83356C23.612 7.76342 23.4279 7.60836 23.321 7.40246C22.4858 5.75253 21.2217 4.35801 19.6614 3.36543C19.5641 3.3041 19.4799 3.22422 19.4135 3.13034C19.3472 3.03647 19.2999 2.93044 19.2746 2.81831C19.2492 2.70619 19.2461 2.59016 19.2656 2.47685C19.285 2.36354 19.3266 2.25517 19.3879 2.15793C19.4492 2.06069 19.5291 1.97649 19.623 1.91012C19.7169 1.84375 19.8229 1.79652 19.935 1.77113C20.0472 1.74574 20.1632 1.74268 20.2765 1.76214C20.3898 1.78159 20.4982 1.82316 20.5954 1.8845C22.4139 3.04883 23.8905 4.67527 24.8742 6.59746C24.9808 6.80344 25.0013 7.04333 24.9312 7.26443C24.8611 7.48552 24.706 7.66971 24.5001 7.77653ZM3.90588 7.87496C4.06619 7.8749 4.22339 7.83079 4.36034 7.74747C4.49728 7.66414 4.60871 7.5448 4.68245 7.40246C5.51764 5.75253 6.78181 4.35801 8.34213 3.36543C8.53852 3.24157 8.67765 3.04476 8.72893 2.81831C8.78021 2.59186 8.73944 2.35432 8.61557 2.15793C8.49171 1.96155 8.2949 1.82241 8.06845 1.77113C7.842 1.71985 7.60446 1.76063 7.40807 1.8845C5.58961 3.04883 4.11302 4.67527 3.12932 6.59746C3.06024 6.73081 3.02664 6.8797 3.03176 7.02979C3.03688 7.17989 3.08054 7.32614 3.15855 7.45447C3.23656 7.5828 3.34629 7.6889 3.47718 7.76254C3.60806 7.83618 3.7557 7.8749 3.90588 7.87496ZM24.2606 19.2434C24.4156 19.5092 24.4978 19.8112 24.4988 20.119C24.4999 20.4267 24.4198 20.7292 24.2666 20.9961C24.1134 21.263 23.8925 21.4848 23.6263 21.6391C23.3601 21.7934 23.0578 21.8747 22.7501 21.875H18.2876C18.0868 22.864 17.5502 23.7531 16.7688 24.3918C15.9874 25.0305 15.0093 25.3793 14.0001 25.3793C12.9909 25.3793 12.0128 25.0305 11.2314 24.3918C10.45 23.7531 9.91343 22.864 9.7126 21.875H5.2501C4.94256 21.8744 4.64061 21.7927 4.37467 21.6383C4.10873 21.4838 3.88819 21.262 3.73526 20.9952C3.58233 20.7284 3.50242 20.4259 3.50357 20.1184C3.50472 19.8109 3.5869 19.5091 3.74182 19.2434C4.72729 17.5426 5.2501 15.1243 5.2501 12.25C5.2501 9.92932 6.17197 7.70372 7.81292 6.06278C9.45386 4.42184 11.6795 3.49996 14.0001 3.49996C16.3207 3.49996 18.5463 4.42184 20.1873 6.06278C21.8282 7.70372 22.7501 9.92932 22.7501 12.25C22.7501 15.1232 23.2729 17.5415 24.2606 19.2434ZM16.4742 21.875H11.526C11.7073 22.3862 12.0425 22.8287 12.4855 23.1417C12.9286 23.4546 13.4577 23.6227 14.0001 23.6227C14.5425 23.6227 15.0716 23.4546 15.5147 23.1417C15.9577 22.8287 16.2929 22.3862 16.4742 21.875ZM22.7501 20.125C21.5864 18.1267 21.0001 15.4776 21.0001 12.25C21.0001 10.3934 20.2626 8.61297 18.9499 7.30022C17.6371 5.98746 15.8566 5.24996 14.0001 5.24996C12.1436 5.24996 10.3631 5.98746 9.05035 7.30022C7.7376 8.61297 7.0001 10.3934 7.0001 12.25C7.0001 15.4787 6.41166 18.1278 5.2501 20.125H22.7501Z" fill="#FDFDFD"/>
</svg>
